<svg xmlns="http://www.w3.org/2000/svg" width="1086" height="965" viewBox="0 0 1086 965">
<g>
<path d="M 504.02 500.69 C504.06,541.88 503.81,552.49 502.79,552.94 C502.08,553.25 495.76,553.37 488.75,553.22 L 476.00 552.94 L 476.00 403.00 L 506.95 403.00 L 512.80 411.75 C516.02,416.56 523.07,427.48 528.47,436.00 C533.87,444.52 541.77,456.90 546.02,463.50 C559.98,485.19 567.44,496.98 571.50,503.76 L 575.50 510.45 L 575.76 456.72 L 576.02 403.00 L 605.00 403.00 L 605.00 553.00 L 572.99 553.00 L 568.35 545.75 C565.79,541.76 556.50,527.47 547.70,514.00 C538.90,500.52 527.44,482.98 522.23,475.00 C517.02,467.02 511.12,457.94 509.13,454.81 C507.13,451.67 505.15,449.09 504.73,449.06 C504.31,449.03 503.99,472.26 504.02,500.69 ZM 410.75 553.16 C391.91,553.25 367.50,553.36 356.50,553.41 C345.50,553.46 335.49,553.36 334.25,553.18 L 332.00 552.86 L 332.00 403.00 L 445.06 403.00 L 444.50 429.50 L 402.25 429.76 L 360.00 430.02 L 359.99 444.26 L 359.98 458.50 L 353.58 465.55 C348.58,471.08 347.12,473.40 346.87,476.25 C346.70,478.25 346.83,480.16 347.16,480.49 C347.49,480.83 350.58,477.92 354.03,474.05 L 360.29 467.00 L 437.00 467.00 L 437.00 494.00 L 360.00 494.00 L 360.00 526.00 L 445.00 526.00 L 445.00 553.00 ZM 284.75 549.11 L 278.50 552.50 L 188.00 553.08 L 188.00 526.00 L 228.55 526.00 C273.65,526.00 273.86,525.97 276.58,519.47 C278.63,514.57 278.38,507.13 276.04,503.30 C273.56,499.23 270.27,497.55 260.96,495.62 C232.54,489.72 215.39,485.81 210.11,484.04 C193.76,478.53 185.37,468.73 183.06,452.45 C180.24,432.48 188.66,413.73 203.81,406.29 L 209.50 403.50 L 253.25 403.19 L 297.00 402.88 L 297.00 430.00 L 216.80 430.00 L 213.40 433.40 C210.34,436.46 210.00,437.36 210.00,442.45 C210.00,449.94 212.05,453.69 217.47,456.09 C221.85,458.03 235.27,461.26 262.50,466.95 C285.82,471.82 294.46,476.91 300.76,489.50 C306.04,500.04 306.56,520.89 301.80,531.18 C298.31,538.73 292.37,544.98 284.75,549.11 ZM 864.46 549.65 C856.85,553.13 850.43,553.53 807.25,553.24 L 769.00 552.98 L 769.00 526.00 L 850.93 526.00 L 854.35 523.00 C860.96,517.19 861.10,506.86 854.65,500.48 C851.34,497.21 850.13,496.89 806.00,487.61 C792.22,484.71 787.34,482.88 779.79,477.82 C769.29,470.76 764.76,460.78 764.81,444.79 C764.87,425.04 771.48,412.88 785.80,406.17 L 791.50 403.50 L 877.00 402.92 L 877.00 430.00 L 838.25 430.00 C801.59,430.01 799.33,430.11 796.30,431.96 C790.92,435.24 789.47,445.50 793.52,451.67 C796.38,456.03 799.84,457.06 850.00,468.43 C867.73,472.45 876.53,478.56 882.39,490.93 C885.41,497.31 885.50,497.90 885.50,511.52 C885.50,525.32 885.45,525.65 882.25,532.14 C878.42,539.92 872.08,546.16 864.46,549.65 ZM 702.00 490.81 C702.00,524.95 701.66,553.02 701.25,553.19 C700.84,553.36 694.54,553.37 687.25,553.22 L 674.00 552.94 L 674.00 429.00 L 628.00 429.00 L 628.00 403.00 L 746.00 403.00 L 746.00 430.21 L 702.00 428.75 Z" fill="rgb(24,32,45)"/>
<path d="M 0.00 482.50 L 0.00 0.00 L 543.00 0.00 L 1086.00 0.00 L 1086.00 482.50 L 1086.00 965.00 L 543.00 965.00 L 0.00 965.00 L 0.00 482.50 ZM 410.75 553.16 L 445.00 553.00 L 445.00 539.50 L 445.00 526.00 L 402.50 526.00 L 360.00 526.00 L 360.00 510.00 L 360.00 494.00 L 398.50 494.00 L 437.00 494.00 L 437.00 480.50 L 437.00 467.00 L 398.65 467.00 L 360.29 467.00 L 354.03 474.05 C350.58,477.92 347.49,480.83 347.16,480.49 C346.83,480.16 346.70,478.25 346.87,476.25 C347.12,473.40 348.58,471.08 353.58,465.55 L 359.98 458.50 L 359.99 444.26 L 360.00 430.02 L 402.25 429.76 L 444.50 429.50 L 444.78 416.25 L 445.06 403.00 L 388.53 403.00 L 332.00 403.00 L 332.00 477.93 L 332.00 552.86 L 334.25 553.18 C335.49,553.36 345.50,553.46 356.50,553.41 C367.50,553.36 391.91,553.25 410.75,553.16 ZM 504.02 500.69 C503.99,472.26 504.31,449.03 504.73,449.06 C505.15,449.09 507.13,451.67 509.13,454.81 C511.12,457.94 517.02,467.02 522.23,475.00 C527.44,482.98 538.90,500.52 547.70,514.00 C556.50,527.47 565.79,541.76 568.35,545.75 L 572.99 553.00 L 588.99 553.00 L 605.00 553.00 L 605.00 478.00 L 605.00 403.00 L 590.51 403.00 L 576.02 403.00 L 575.76 456.72 L 575.50 510.45 L 571.50 503.76 C567.44,496.98 559.98,485.19 546.02,463.50 C541.77,456.90 533.87,444.52 528.47,436.00 C523.07,427.48 516.02,416.56 512.80,411.75 L 506.95 403.00 L 491.47 403.00 L 476.00 403.00 L 476.00 477.97 L 476.00 552.94 L 488.75 553.22 C495.76,553.37 502.08,553.25 502.79,552.94 C503.81,552.49 504.06,541.88 504.02,500.69 ZM 702.00 490.81 L 702.00 428.75 L 724.00 429.48 L 746.00 430.21 L 746.00 416.60 L 746.00 403.00 L 687.00 403.00 L 628.00 403.00 L 628.00 416.00 L 628.00 429.00 L 651.00 429.00 L 674.00 429.00 L 674.00 490.97 L 674.00 552.94 L 687.25 553.22 C694.54,553.37 700.84,553.36 701.25,553.19 C701.66,553.02 702.00,524.95 702.00,490.81 ZM 864.46 549.65 C872.08,546.16 878.42,539.92 882.25,532.14 C885.45,525.65 885.50,525.32 885.50,511.52 C885.50,497.90 885.41,497.31 882.39,490.93 C876.53,478.56 867.73,472.45 850.00,468.43 C799.84,457.06 796.38,456.03 793.52,451.67 C789.47,445.50 790.92,435.24 796.30,431.96 C799.33,430.11 801.59,430.01 838.25,430.00 L 877.00 430.00 L 877.00 416.46 L 877.00 402.92 L 834.25 403.21 L 791.50 403.50 L 785.80 406.17 C771.48,412.88 764.87,425.04 764.81,444.79 C764.76,460.78 769.29,470.76 779.79,477.82 C787.34,482.88 792.22,484.71 806.00,487.61 C850.13,496.89 851.34,497.21 854.65,500.48 C861.10,506.86 860.96,517.19 854.35,523.00 L 850.93 526.00 L 809.97 526.00 L 769.00 526.00 L 769.00 539.49 L 769.00 552.98 L 807.25 553.24 C850.43,553.53 856.85,553.13 864.46,549.65 ZM 284.75 549.11 C292.37,544.98 298.31,538.73 301.80,531.18 C306.56,520.89 306.04,500.04 300.76,489.50 C294.46,476.91 285.82,471.82 262.50,466.95 C235.27,461.26 221.85,458.03 217.47,456.09 C212.05,453.69 210.00,449.94 210.00,442.45 C210.00,437.36 210.34,436.46 213.40,433.40 L 216.80 430.00 L 256.90 430.00 L 297.00 430.00 L 297.00 416.44 L 297.00 402.88 L 253.25 403.19 L 209.50 403.50 L 203.81 406.29 C188.66,413.73 180.24,432.48 183.06,452.45 C185.37,468.73 193.76,478.53 210.11,484.04 C215.39,485.81 232.54,489.72 260.96,495.62 C270.27,497.55 273.56,499.23 276.04,503.30 C278.38,507.13 278.63,514.57 276.58,519.47 C273.86,525.97 273.65,526.00 228.55,526.00 L 188.00 526.00 L 188.00 539.54 L 188.00 553.08 L 233.25 552.79 L 278.50 552.50 L 284.75 549.11 Z" fill="rgb(254,254,254)"/>
</g>
</svg>